<svg xmlns="http://www.w3.org/2000/svg" version="1.1" xmlns:xlink="http://www.w3.org/1999/xlink" xmlns:svgjs="http://svgjs.dev/svgjs" viewBox="0 0 1422 800"><defs><filter id="uuunion-blur" x="-100%" y="-100%" width="400%" height="400%" color-interpolation-filters="sRGB">
        <feGaussianBlur in="SourceGraphic" stdDeviation="7.5 0" result="blur"></feGaussianBlur>
        <feDropShadow stdDeviation="80" in="blur" dx="65" dy="65" flood-color="hsl(265, 55%, 30%)" flood-opacity="0.57" x="0%" y="0%" width="100%" height="100%"></feDropShadow>
      </filter><filter id="uuunion-blur2" x="-100%" y="-100%" width="400%" height="400%" color-interpolation-filters="sRGB">
        <feGaussianBlur in="SourceGraphic" stdDeviation="7.5 0" result="blur"></feGaussianBlur>
        <feDropShadow stdDeviation="80" in="blur" dx="-65" dy="-65" flood-color="hsl(265, 55%, 30%)" flood-opacity="0.57" x="0%" y="0%" width="100%" height="100%"></feDropShadow>
      </filter><linearGradient gradientTransform="rotate(205, 0.5, 0.5)" x1="50%" y1="0%" x2="50%" y2="100%" id="uuunion-grad"><stop stop-color="hsl(33, 53%, 48%)" offset="10%"></stop><stop stop-color="hsl(265, 55%, 30%)" offset="90%"></stop></linearGradient><linearGradient gradientTransform="rotate(142, 0.5, 0.5)" x1="50%" y1="0%" x2="50%" y2="100%" id="uuunion-grad2"><stop stop-color="hsl(33, 53%, 48%)" offset="25%"></stop><stop stop-color="hsl(265, 55%, 30%)" offset="100%"></stop></linearGradient><linearGradient gradientTransform="rotate(335, 0.5, 0.5)" x1="50%" y1="0%" x2="50%" y2="100%" id="uuunion-grad3"><stop stop-color="hsl(33, 53%, 48%)" offset="0%"></stop><stop stop-color="hsl(265, 55%, 30%)" offset="75%"></stop></linearGradient></defs><path d="M-119.25 -85.76Q-106.63 -84.8 -94 -83.55 -81.37 -82.08 -68.74 -80.49 -56.11 -78.87 -43.49 -77.31 -30.86 -75.92 -18.23 -74.77 -5.6 -73.95 7.01 -73.48 19.64 -73.42 32.27 -73.75 44.9 -74.46 57.52 -75.51 70.15 -76.83 82.78 -78.34 95.41 -79.95 108.03 -81.56 120.66 -83.08 133.29 -84.41 145.92 -85.48 158.55 -86.21 171.17 -86.56 183.8 -86.52 196.43 -86.08 209.06 -85.27 221.68 -84.14 234.31 -82.76 246.94 -81.22 259.57 -79.6 272.19 -78 284.82 -76.52 297.45 -75.25 310.08 -74.28 322.71 -73.64 335.33 -73.4 347.96 -73.55 360.59 -74.1 373.22 -75 385.84 -76.2 398.47 -77.64 411.1 -79.21 423.73 -80.84 436.35 -82.41 448.98 -83.84 461.61 -85.04 474.24 -85.92 486.87 -86.45 499.49 -86.59 512.12 -86.33 524.75 -85.68 537.38 -84.69 550 -83.41 562.63 -81.93 575.26 -80.33 587.89 -78.71 600.51 -77.17 613.14 -75.79 625.77 -74.68 638.4 -73.88 651.03 -73.46 663.65 -73.43 676.28 -73.8 688.91 -74.55 701.54 -75.63 714.16 -76.97 726.79 -78.49 739.42 -80.11 752.05 -81.72 764.67 -83.22 777.3 -84.53 789.93 -85.56 802.56 -86.26 815.19 -86.58 827.81 -86.49 840.44 -86.02 853.07 -85.18 865.7 -84.02 878.32 -82.62 890.95 -81.06 903.58 -79.44 916.21 -77.85 928.84 -76.39 941.46 -75.15 954.09 -74.2 966.72 -73.6 979.35 -73.4 991.97 -73.59 1004.6 -74.17 1017.23 -75.1 1029.86 -76.33 1042.49 -77.79 1055.11 -79.37 1067.74 -81 1080.37 -82.56 1093 -83.97 1105.62 -85.14 1118.25 -85.99 1130.88 -86.48 1143.51 -86.58 1156.13 -86.28 1168.76 -85.6 1181.39 -84.58 1194.02 -83.28 1206.65 -81.78 1219.27 -80.17 1231.9 -78.55 1244.53 -77.02 1257.16 -75.67 1269.78 -74.58 1282.41 -73.82 1295.04 -73.44 1307.67 -73.45 1320.3 -73.86 1332.92 -74.64 1345.55 -75.75 1358.18 -77.11 1370.81 -78.65 1383.43 -80.27 1396.06 -81.87 1408.69 -83.36 1421.32 -84.65 1433.95 -85.65 1446.57 -86.31 1459.2 -86.59 1471.83 -86.47 1484.46 -85.95 1497.08 -85.08 1502.64 -70.57 1512.3 -56.06 1525.4 -41.55 1541.09 -27.04 1558.31 -12.53 1575.92 1.97 1592.76 16.48 1607.69 30.99 1619.73 45.5 1628.08 60.01 1632.18 74.52 1631.75 89.03 1626.84 103.54 1617.75 118.04 1605.11 132.55 1589.74 147.06 1572.67 161.57 1555.04 176.08 1538.02 190.59 1522.74 205.1 1510.22 219.61 1501.29 234.12 1496.54 248.63 1496.29 263.14 1500.56 277.65 1509.06 292.16 1521.23 306.67 1536.25 321.17 1553.14 335.68 1570.76 350.19 1587.94 364.7 1603.54 379.21 1616.53 393.72 1626.04 408.23 1631.43 422.74 1632.35 437.25 1628.74 451.76 1620.83 466.27 1609.16 480.78 1594.5 495.29 1577.82 509.8 1560.23 524.3 1542.91 538.81 1527.01 553.32 1513.57 567.83 1503.51 582.34 1497.48 596.85 1495.89 611.36 1498.84 625.87 1506.14 640.38 1517.3 654.89 1531.58 669.4 1548.03 683.91 1565.55 698.42 1582.99 712.92 1599.17 727.43 1613.03 741.94 1623.64 756.45 1630.29 770.96 1632.55 785.47 1630.27 799.98 1623.59 814.49 1612.95 829 1599.08 843.51 1585.38 837.22 1571.69 833.53 1557.99 832.65 1544.29 834.64 1530.6 839.39 1516.9 846.6 1503.2 855.83 1489.5 866.53 1475.81 878.04 1462.11 889.67 1448.41 900.72 1434.72 910.51 1421.02 918.45 1407.32 924.05 1393.63 926.99 1379.93 927.08 1366.23 924.31 1352.54 918.85 1338.84 911.04 1325.14 901.34 1311.44 890.36 1297.75 878.74 1284.05 867.2 1270.35 856.43 1256.66 847.1 1242.96 839.75 1229.26 834.85 1215.57 832.69 1201.87 833.39 1188.17 836.92 1174.48 843.07 1160.78 851.45 1147.08 861.56 1133.39 872.79 1119.69 884.46 1105.99 895.85 1092.29 906.29 1078.6 915.13 1064.9 921.84 1051.2 926.01 1037.51 927.39 1023.81 925.9 1010.11 921.63 996.42 914.83 982.72 905.91 969.02 895.43 955.33 884.01 941.63 872.35 927.93 861.15 914.24 851.09 900.54 842.79 886.84 836.74 873.14 833.31 859.45 832.72 845.75 834.99 832.05 839.99 818.36 847.42 804.66 856.82 790.96 867.63 777.27 879.19 763.57 890.79 749.87 901.74 736.18 911.38 722.48 919.11 708.78 924.46 695.09 927.13 681.39 926.93 667.69 923.89 654 918.18 640.3 910.16 626.6 900.31 612.9 889.23 599.21 877.59 585.51 866.1 571.81 855.44 558.12 846.28 544.42 839.16 530.72 834.52 517.03 832.63 503.33 833.62 489.63 837.42 475.94 843.8 462.24 852.37 448.54 862.62 434.85 873.93 421.15 885.6 407.45 896.93 393.76 907.24 380.06 915.89 366.36 922.37 352.67 926.27 338.97 927.38 325.27 925.6 311.58 921.07 297.88 914.04 284.18 904.95 270.48 894.34 256.79 882.87 243.09 871.22 229.39 860.1 215.7 850.19 202 842.09 188.3 836.28 174.61 833.13 160.91 832.82 147.21 835.36 133.52 840.62 119.82 848.26 106.12 857.83 92.43 868.74 78.73 880.33 65.03 891.91 51.34 902.76 37.64 912.23 23.94 919.74 10.25 924.85 -3.44 927.23 -17.14 926.76 -30.83 923.44 -44.53 917.49 -58.23 909.27 -71.92 899.27 -85.62 888.11 -99.32 876.45 -113.02 865.01 -126.71 854.47 -140.41 845.49 -154.11 838.59 -158.85 824.15 -162.48 809.7 -164.76 795.26 -165.54 780.82 -164.77 766.38 -162.5 751.93 -158.87 737.49 -154.14 723.05 -148.61 708.6 -142.65 694.16 -136.66 679.72 -131.04 665.27 -126.16 650.83 -122.35 636.39 -119.85 621.94 -118.84 607.5 -119.39 593.06 -121.45 578.61 -124.89 564.17 -129.48 549.73 -134.91 535.28 -140.83 520.84 -146.84 506.4 -152.54 491.96 -157.55 477.51 -161.54 463.07 -164.24 448.63 -165.47 434.18 -165.16 419.74 -163.32 405.3 -160.07 390.85 -155.63 376.41 -150.3 361.97 -144.43 347.52 -138.41 333.08 -132.64 318.64 -127.5 304.19 -123.34 289.75 -120.44 275.31 -118.98 260.87 -119.07 246.42 -120.69 231.98 -123.74 217.54 -128.02 203.09 -133.24 188.65 -139.06 174.21 -145.08 159.76 -150.91 145.32 -156.16 130.88 -160.49 116.43 -163.59 101.99 -165.27 87.55 -165.41 73.1 -164.01 58.66 -161.16 44.22 -157.05 29.78 -151.94 15.33 -146.19 0.89 -140.17 -13.54 -134.29 -27.99 -128.93 -42.43 -124.45 -56.87 -121.15 -71.32 -119.25 -85.76" fill="url(#uuunion-grad)"></path><path d="M-119.26 -85.76Q-121.16 -71.32 -124.46 -56.87 -128.94 -42.43 -134.3 -27.99 -140.18 -13.55 -146.2 0.89 -151.95 15.33 -157.06 29.77 -161.17 44.22 -164.02 58.66 -165.43 73.1 -165.28 87.55 -163.6 101.99 -160.5 116.43 -156.18 130.88 -150.92 145.32 -145.09 159.76 -139.07 174.2 -133.25 188.65 -128.03 203.09 -123.75 217.53 -120.7 231.98 -119.08 246.42 -118.99 260.86 -120.45 275.31 -123.35 289.75 -127.51 304.19 -132.65 318.64 -138.42 333.08 -144.44 347.52 -150.31 361.96 -155.64 376.41 -146.48 378.88 -137.32 381.92 -128.15 385.45 -118.99 389.38 -109.83 393.59 -100.67 397.97 -91.5 402.41 -82.34 406.78 -73.18 410.97 -64.02 414.87 -54.85 418.36 -45.69 421.35 -36.53 423.77 -27.37 425.55 -10.05 426.89 -6.99 426.98 5.11 422.95 17.19 417.84 29.23 411.75 41.24 404.79 53.2 397.15 65.11 389.02 76.97 380.62 88.77 372.16 100.52 363.87 112.2 355.98 123.83 348.67 135.39 342.11 146.89 336.44 158.32 331.76 169.68 328.12 180.98 325.53 192.21 323.96 203.37 323.34 214.47 323.54 225.51 324.43 236.48 325.81 247.4 327.51 258.25 329.31 269.05 331 279.8 332.39 290.5 333.29 301.15 333.54 311.76 332.99 322.34 331.56 332.88 329.18 343.39 325.83 353.87 321.53 364.34 316.35 374.8 310.37 385.24 303.73 395.68 296.58 406.12 289.1 416.56 281.47 427.02 273.89 437.5 266.54 447.99 259.59 458.52 253.21 469.07 247.52 479.67 242.61 490.3 238.56 500.99 235.39 511.72 233.1 522.51 231.64 533.36 230.92 544.28 230.84 555.26 231.26 566.31 232.02 577.43 232.97 588.63 233.91 599.92 234.7 611.28 235.15 622.72 235.13 634.25 234.52 645.86 233.21 657.55 231.14 669.33 228.27 681.2 224.61 693.15 220.18 705.18 215.07 717.29 209.35 729.48 203.14 741.75 196.58 754.09 189.83 766.5 183.03 778.98 176.34 791.53 169.91 804.13 163.88 816.78 158.35 829.49 153.42 842.23 149.17 855.02 145.62 867.83 142.78 880.68 140.63 893.54 139.12 906.41 138.17 919.29 137.68 932.17 137.53 945.04 137.6 957.89 137.73 970.72 137.81 983.52 137.68 996.27 137.24 1008.99 136.37 1021.65 134.98 1034.24 133.01 1046.77 130.43 1059.22 127.22 1071.59 123.39 1083.87 118.99 1096.06 114.08 1108.14 108.75 1120.11 103.08 1131.96 97.21 1143.69 91.24 1155.3 85.3 1166.78 79.51 1178.12 73.97 1189.31 68.78 1200.37 64.03 1211.28 59.76 1222.03 56.03 1232.64 52.84 1243.09 50.18 1253.39 48.03 1263.53 46.34 1273.52 45.03 1283.34 44.02 1293.02 43.21 1302.54 42.5 1311.91 41.8 1321.14 40.99 1330.21 39.98 1339.15 38.69 1347.95 37.04 1356.62 34.99 1365.16 32.49 1373.58 29.54 1381.89 26.12 1390.09 22.28 1398.2 18.04 1406.21 13.47 1414.14 8.64 1422 3.61 1403.95 -14.15 1387.54 -31.92 1374.24 -49.68 1365.25 -67.45 1361.4 -85.22 1363.01 -102.99 1369.85 -129.24 1357.86 -137.02 1345.99 -136.47 1334.12 -136.11 1322.24 -135.95 1310.37 -136 1298.5 -136.26 1286.63 -136.71 1274.75 -137.33 1262.88 -138.08 1251.01 -138.94 1239.14 -139.85 1227.27 -140.77 1215.39 -141.65 1203.52 -142.44 1191.65 -143.11 1179.78 -143.61 1167.9 -143.93 1156.03 -144.04 1144.16 -143.95 1132.29 -143.65 1120.42 -143.16 1108.54 -142.51 1096.67 -141.72 1084.8 -140.85 1072.93 -139.93 1061.05 -139.02 1049.18 -138.16 1037.31 -137.39 1025.44 -136.75 1013.56 -136.29 1001.69 -136.02 989.82 -135.95 977.95 -136.09 966.08 -136.43 954.2 -136.96 942.33 -137.65 930.46 -138.45 918.59 -139.34 906.71 -140.26 894.84 -141.17 882.97 -142.01 871.1 -142.76 859.23 -143.35 847.35 -143.78 835.48 -144.01 823.61 -144.03 811.74 -143.84 799.86 -143.45 787.99 -142.89 776.12 -142.17 764.25 -141.34 752.38 -140.45 740.5 -139.52 728.63 -138.63 716.76 -137.8 704.89 -137.09 693.01 -136.53 681.14 -136.14 669.27 -135.96 657.4 -135.99 645.53 -136.22 633.65 -136.65 621.78 -137.25 609.91 -137.99 598.04 -138.84 586.16 -139.75 574.29 -140.67 562.42 -141.55 550.55 -142.36 538.67 -143.04 526.8 -143.56 514.93 -143.9 503.06 -144.04 491.19 -143.97 479.31 -143.69 467.44 -143.22 455.57 -142.59 443.7 -141.82 431.82 -140.95 419.95 -140.04 408.08 -139.12 396.21 -138.25 384.34 -137.47 372.46 -136.82 360.59 -136.33 348.72 -136.04 336.85 -135.95 324.97 -136.06 313.1 -136.39 301.23 -136.89 289.36 -137.56 277.49 -138.36 265.61 -139.24 253.74 -140.16 241.87 -141.07 230 -141.92 218.12 -142.68 206.25 -143.29 194.38 -143.74 182.51 -143.99 170.63 -144.04 158.76 -143.87 146.89 -143.51 135.02 -142.96 123.15 -142.26 111.27 -141.44 99.4 -140.55 87.53 -139.63 75.66 -138.73 63.78 -137.89 51.91 -137.16 40.04 -136.58 28.17 -136.18 16.3 -135.97 4.42 -135.97 -7.44 -136.18 -19.31 -136.59 -31.18 -137.17 -43.06 -137.9 -54.93 -138.74 -66.8 -139.64 -78.67 -140.56 -90.54 -141.46 -102.42 -142.27 -114.29 -142.97 -128.66 -136.46 -125.66 -114.9 -121.68 -100.35 -119.26 -85.76" fill="url(#uuunion-grad2)" filter="url(#uuunion-blur)"></path><path d="M1379.91 328.53Q1388.46 324.81 1397.02 320.96 1405.57 317.09 1414.13 313.29 1422.69 309.67 1431.24 306.33 1439.8 303.37 1448.36 300.85 1465.47 297.72 1482.58 296.41 1499.69 298.23 1516.81 301.83 1533.59 318.76 1553.14 335.68 1573.68 352.61 1593.37 369.54 1610.42 386.47 1623.3 403.39 1630.84 420.32 1632.35 437.25 1627.71 454.18 1617.33 471.1 1602.15 488.03 1583.54 504.96 1563.18 521.89 1542.91 538.81 1524.57 555.74 1509.81 572.67 1499.96 589.6 1495.91 606.52 1498.04 623.45 1506.14 640.38 1519.48 657.31 1536.87 674.23 1556.73 691.16 1577.26 708.09 1596.61 725.02 1613.03 741.94 1625.04 758.87 1631.55 775.8 1631.98 792.73 1626.28 809.65 1614.97 826.58 1599.08 843.51 1586.52 837.65 1573.95 833.95 1561.39 832.6 1548.83 833.67 1536.26 837.11 1523.7 842.73 1511.14 850.26 1498.57 859.31 1486.01 869.41 1473.44 880.06 1460.88 890.7 1448.32 900.79 1435.75 909.82 1423.19 917.33 1410.63 922.94 1398.06 926.35 1385.5 927.39 1372.94 926.01 1360.37 922.29 1347.81 916.4 1335.25 908.66 1322.68 899.45 1310.12 889.25 1297.55 878.57 1284.99 867.97 1272.43 857.99 1259.86 849.12 1247.3 841.83 1234.74 836.5 1222.17 833.38 1209.61 832.64 1197.05 834.32 1184.48 838.33 1171.92 844.47 1159.36 852.43 1146.79 861.79 1134.23 872.08 1121.67 882.77 1109.1 893.33 1096.54 903.2 1083.97 911.89 1071.41 918.95 1058.85 924.02 1046.28 926.84 1033.72 927.27 1021.16 925.29 1008.59 920.99 996.03 914.6 983.47 906.45 970.9 896.94 958.34 886.57 945.78 875.86 933.21 865.37 920.65 855.62 908.09 847.11 895.52 840.29 882.96 835.49 870.39 832.96 857.83 832.84 845.27 835.12 832.7 839.7 820.14 846.33 807.58 854.68 795.01 864.33 782.45 874.77 769.89 885.48 757.32 895.91 744.76 905.53 732.2 913.84 719.63 920.43 707.07 924.95 694.51 927.18 681.94 926.99 669.38 924.41 656.81 919.56 644.25 912.69 631.69 904.15 619.12 894.38 606.56 883.87 594 873.16 581.43 862.81 568.87 853.33 556.31 845.21 543.74 838.87 531.18 834.63 518.62 832.7 506.05 833.19 493.49 836.07 480.93 841.19 468.36 848.3 455.8 857.02 443.23 866.91 430.67 877.48 418.11 888.17 405.54 898.44 392.98 907.77 380.42 915.69 367.85 921.78 355.29 925.74 342.73 927.36 330.16 926.56 317.6 923.39 305.04 918 292.47 910.67 279.91 901.77 267.35 891.76 254.78 881.15 242.22 870.49 229.65 860.3 217.09 851.13 204.53 843.42 191.96 837.59 179.4 833.92 166.84 832.6 154.27 833.7 141.71 837.17 129.15 842.82 116.58 850.37 104.02 859.43 91.46 869.55 78.89 880.19 66.33 890.83 53.77 900.91 41.2 909.93 28.64 917.42 16.07 922.99 -3.86 921.67 -13.15 906.54 -14.7 896.11 -15.83 885.69 -16.53 875.26 -16.76 864.84 -15.92 849.2 -14.79 844 -1.03 836.31 12.81 826.39 26.73 814.44 40.69 800.8 54.65 785.89 68.59 770.17 82.48 754.16 96.31 738.38 110.04 723.34 123.66 709.49 137.15 697.23 150.5 686.85 163.7 678.55 176.75 672.41 189.64 668.4 202.36 666.36 214.94 666.06 227.36 667.14 239.65 669.2 251.82 671.8 263.88 674.44 275.85 676.66 287.74 678 299.6 678.09 311.42 676.6 323.24 673.3 335.09 668.05 346.97 660.84 358.93 651.74 370.97 640.93 383.12 628.68 395.39 615.33 407.81 601.27 420.38 586.92 433.11 572.73 446.02 559.11 459.09 546.45 472.34 535.07 485.76 525.22 499.35 517.08 513.08 510.71 526.96 506.09 540.95 503.12 555.04 501.58 569.21 501.21 583.43 501.67 597.67 502.6 611.9 503.6 626.1 504.28 640.22 504.29 654.25 503.3 668.14 501.05 681.87 497.35 695.41 492.09 708.73 485.24 721.8 476.86 734.61 467.1 747.13 456.16 759.35 444.32 771.26 431.89 782.85 419.21 794.12 406.63 805.06 394.48 815.7 383.07 825.23 378.37 834.73 374.33 844.2 371.06 853.65 368.61 863.07 367.01 872.46 366.28 881.83 366.39 891.17 367.29 900.49 368.92 909.78 371.18 919.04 373.95 928.27 377.1 937.48 380.48 946.67 383.96 955.82 387.36 964.95 390.55 974.06 393.39 983.13 395.73 992.19 397.47 1001.21 398.51 1010.21 398.79 1019.19 398.25 1028.14 396.88 1037.07 394.68 1045.97 391.69 1054.85 387.97 1063.7 383.6 1072.54 378.68 1081.35 373.34 1090.13 367.7 1098.9 361.91 1107.64 356.12 1116.36 350.48 1125.07 345.12 1133.75 340.17 1142.41 335.76 1151.06 331.98 1159.68 328.92 1176.88 325.53 1194.02 324.52 1211.09 327.11 1228.12 331.41 1236.61 334.28 1245.09 337.35 1253.56 340.49 1262.02 343.56 1278.91 348.68 1295.78 352.42 1312.62 352.96 1329.45 351.24 1337.86 349.04 1346.27 346.11 1354.68 342.51 1363.08 338.31 1371.49 333.61 1379.91 328.53" fill="url(#uuunion-grad3)" filter="url(#uuunion-blur2)"></path></svg>